<?xml version="1.0" standalone="no"?>
<!DOCTYPE svg PUBLIC "-//W3C//DTD SVG 20010904//EN"
 "http://www.w3.org/TR/2001/REC-SVG-20010904/DTD/svg10.dtd">
<svg version="1.0" xmlns="http://www.w3.org/2000/svg"
 width="1920.000000pt" height="1080.000000pt" viewBox="0 0 1920.000000 1080.000000"
 preserveAspectRatio="xMidYMid meet">
<metadata>
Created by potrace 1.16, written by Peter Selinger 2001-2019
</metadata>
<g transform="translate(0.000000,1080.000000) scale(0.100000,-0.100000)"
fill="#000000" stroke="none">
<path d="M16715 10550 c-74 -11 -163 -36 -188 -53 -20 -14 -101 -136 -236
-355 -29 -48 -107 -186 -173 -307 -247 -453 -313 -572 -368 -665 -131 -221
-140 -242 -171 -391 -16 -77 -51 -209 -78 -292 -27 -84 -61 -192 -76 -242 -15
-49 -44 -130 -64 -180 -21 -49 -50 -124 -66 -165 -35 -90 -38 -94 -61 -81 -88
49 -510 70 -648 32 l-68 -19 -28 62 c-26 58 -51 127 -189 531 -32 94 -68 190
-78 215 -11 25 -26 69 -33 98 -8 28 -17 52 -21 52 -4 0 -10 21 -13 48 -4 26
-16 73 -28 104 -29 76 -57 89 -119 57 -24 -12 -55 -30 -69 -39 -45 -32 -158
-89 -217 -111 -68 -26 -131 -66 -167 -109 -32 -39 -59 -126 -96 -310 -18 -90
-41 -173 -60 -215 -39 -86 -112 -281 -136 -361 -16 -55 -21 -165 -9 -205 14
-43 174 -73 344 -66 131 6 250 33 396 92 32 14 60 23 60 22 1 -1 11 -15 23
-30 l21 -29 -103 -101 c-170 -168 -212 -223 -261 -347 -53 -131 -64 -178 -76
-310 -16 -181 -12 -282 15 -425 48 -243 50 -258 50 -475 0 -195 -3 -233 -32
-410 -18 -107 -37 -231 -43 -275 -15 -120 -47 -286 -80 -417 -16 -65 -36 -149
-44 -188 -8 -39 -34 -119 -56 -178 -63 -164 -67 -176 -62 -185 2 -4 19 4 37
18 18 14 36 25 41 25 4 0 29 13 54 28 51 31 143 60 296 92 209 45 263 62 357
107 l97 48 57 125 c31 69 70 153 86 187 30 61 30 65 26 185 -3 68 -13 166 -23
219 l-18 96 -63 39 c-74 45 -124 101 -167 187 -25 50 -32 77 -35 144 -4 75 -2
86 22 127 36 62 70 86 120 86 31 0 50 -7 75 -28 30 -24 34 -36 47 -112 14 -91
50 -352 60 -441 7 -60 25 -173 49 -294 8 -44 18 -148 22 -231 l6 -152 -24 5
c-45 8 -64 -27 -67 -126 -7 -171 27 -340 72 -357 15 -6 12 -73 -9 -208 l-12
-80 23 29 c13 16 47 99 76 185 42 124 59 163 88 194 34 36 39 38 76 32 26 -5
59 -22 88 -46 42 -35 87 -54 176 -73 16 -4 34 1 50 13 25 19 25 20 28 204 4
169 2 187 -13 193 -20 7 -138 -21 -204 -49 -39 -16 -50 -17 -98 -6 -41 10 -55
18 -59 34 -3 12 1 82 10 155 15 133 12 316 -10 597 -4 52 -3 92 2 92 5 -1 46
-14 92 -30 70 -24 88 -27 115 -18 36 12 58 28 39 28 -7 0 -42 15 -79 32 -77
38 -137 105 -153 171 -5 23 -14 55 -19 70 l-10 28 82 -6 82 -7 -46 44 c-59 54
-98 126 -138 252 -17 54 -31 102 -31 107 0 7 43 60 134 164 l34 40 36 -34 35
-34 -6 69 c-8 102 16 191 96 357 37 78 77 153 88 166 l20 24 6 -109 c10 -153
43 -249 107 -314 30 -30 64 -53 89 -61 38 -11 42 -16 61 -73 21 -63 90 -164
90 -131 0 15 7 16 72 10 l73 -7 -38 41 c-62 68 -110 195 -122 318 -6 66 5 59
76 -49 43 -67 153 -165 224 -200 l60 -30 -70 73 c-38 40 -73 76 -76 79 -4 3
-39 55 -80 115 -61 93 -75 121 -86 179 -7 38 -11 71 -9 73 2 2 16 -22 30 -53
15 -32 44 -81 65 -109 21 -27 46 -62 57 -77 35 -49 307 -278 349 -294 23 -9
24 -30 6 -100 -20 -79 -53 -158 -70 -169 -9 -5 -7 -10 5 -19 16 -12 15 -19
-14 -100 -22 -60 -32 -105 -32 -145 0 -32 -3 -93 -7 -136 -5 -64 -9 -79 -25
-83 -10 -2 -18 -8 -18 -12 0 -5 9 -6 20 -3 18 5 20 0 20 -52 0 -115 -87 -238
-320 -454 l-122 -113 -45 6 c-24 3 -76 13 -114 23 -38 9 -71 14 -73 12 -2 -2
-7 -30 -11 -61 -7 -53 -6 -57 15 -60 17 -2 27 -18 46 -78 14 -41 41 -97 61
-124 l35 -48 126 3 127 4 6 -46 c12 -83 88 -338 140 -470 29 -71 53 -128 55
-127 1 2 -2 23 -6 48 -5 25 -9 174 -10 331 l0 287 23 6 c12 3 32 6 45 6 52 0
62 39 37 135 -8 34 -17 134 -21 258 -5 169 -3 218 11 302 10 55 21 130 24 166
4 41 13 74 23 85 78 89 148 294 148 436 0 64 3 73 31 106 29 33 119 207 119
231 0 6 6 11 14 11 44 0 116 185 116 297 0 71 -39 216 -75 277 -13 23 -38 55
-56 71 -17 17 -39 46 -49 65 -10 20 -65 80 -122 135 -83 81 -122 110 -198 149
-52 27 -119 69 -149 93 -30 24 -62 48 -70 53 -35 19 -17 86 78 289 50 107 102
211 115 230 71 108 122 203 186 346 108 243 128 271 350 504 109 113 222 235
251 271 30 35 78 90 108 122 97 104 314 404 387 533 73 131 144 339 144 424 0
113 -108 239 -225 260 -65 12 -243 13 -320 1z m-1460 -3647 c7 -58 70 -280 85
-298 14 -17 16 -88 3 -92 -18 -7 -94 68 -114 112 -12 26 -19 64 -19 110 0 78
20 225 31 225 3 0 10 -26 14 -57z"/>
<path d="M13210 3767 c-12 -39 -40 -117 -60 -172 -21 -55 -52 -149 -68 -210
-17 -60 -46 -157 -66 -215 -127 -372 -210 -734 -292 -1278 -29 -197 -6 -405
65 -593 22 -59 109 -182 134 -192 21 -8 47 59 101 257 41 145 48 191 75 451
17 160 42 463 56 675 14 212 30 441 35 510 22 283 52 829 45 837 -1 2 -12 -30
-25 -70z"/>
<path d="M13684 3653 c-58 -11 -243 -258 -355 -473 -61 -117 -75 -278 -35
-391 50 -143 234 -448 318 -529 l37 -36 11 -124 c6 -69 18 -169 27 -222 14
-90 14 -99 -1 -123 -20 -31 -76 -207 -117 -367 -26 -105 -31 -145 -38 -336
l-9 -217 -40 -105 c-22 -58 -51 -141 -65 -185 -43 -136 -125 -363 -150 -418
-13 -29 -27 -70 -31 -90 l-7 -37 1511 0 c830 0 1510 3 1510 8 0 13 -46 154
-78 237 -36 94 -108 243 -164 337 -39 66 -39 67 -45 195 -6 128 -6 128 21 159
14 18 37 35 51 38 30 8 31 17 5 41 -27 25 -26 87 2 134 12 20 62 79 112 132
50 53 116 130 146 172 44 61 63 79 93 89 36 11 40 10 60 -16 22 -27 22 -27 43
-8 18 17 22 37 28 125 9 128 -6 251 -44 372 -16 50 -36 119 -45 154 -9 35 -32
94 -51 131 -18 37 -47 112 -63 166 -15 54 -51 160 -79 234 -58 156 -62 168
-101 315 -16 61 -47 173 -69 250 -22 77 -46 169 -53 205 -14 77 -23 90 -40 59
-25 -48 -27 -102 -8 -238 11 -75 18 -145 17 -156 -2 -14 -28 17 -87 104 -77
115 -111 158 -268 339 -53 60 -56 62 -91 56 -64 -12 -358 -165 -612 -318 -135
-81 -256 -156 -270 -166 -14 -10 -45 -21 -68 -25 -38 -6 -52 -1 -169 60 -183
95 -363 211 -478 307 -103 87 -218 169 -232 167 -4 -1 -17 -4 -29 -6z"/>
<path d="M16065 3644 c-14 -15 -14 -19 5 -48 11 -17 34 -56 50 -87 16 -31 59
-103 96 -160 172 -268 260 -411 297 -479 33 -60 80 -161 170 -365 53 -118 84
-237 97 -366 10 -103 9 -124 -10 -214 -11 -55 -23 -109 -27 -120 -5 -16 -3
-18 9 -8 43 36 91 270 90 450 0 110 -3 131 -32 220 -75 228 -223 550 -341 738
-37 61 -82 146 -99 191 -27 71 -37 85 -78 114 -26 19 -82 60 -124 92 -43 32
-80 58 -82 58 -3 0 -12 -7 -21 -16z"/>
</g>
</svg>
